<?xml version="1.0" encoding="UTF-8"?>
<svg id="Layer_2" data-name="Layer 2" xmlns="http://www.w3.org/2000/svg" xmlns:xlink="http://www.w3.org/1999/xlink" viewBox="0 0 873.58 873.58">
  <defs>
    <style>
      .cls-1 {
        stroke-linecap: round;
        stroke-linejoin: round;
        stroke-width: 9px;
      }

      .cls-1, .cls-2, .cls-3 {
        fill: none;
      }

      .cls-1, .cls-3 {
        stroke: #d0d2d3;
      }

      .cls-3 {
        stroke-miterlimit: 10;
        stroke-width: 40px;
      }

      .cls-4 {
        fill: url(#linear-gradient);
      }
    </style>
    <linearGradient id="linear-gradient" x1="323.46" y1="447.06" x2="680.01" y2="652.11" gradientUnits="userSpaceOnUse">
      <stop offset="0" stop-color="#c600ea"/>
      <stop offset=".17" stop-color="#9a2fe0"/>
      <stop offset=".37" stop-color="#705dd6"/>
      <stop offset=".55" stop-color="#4f81ce"/>
      <stop offset=".72" stop-color="#379bc9"/>
      <stop offset=".88" stop-color="#29abc6"/>
      <stop offset="1" stop-color="#24b1c5"/>
    </linearGradient>
  </defs>
  <g id="Layer_2-2" data-name="Layer 2">
    <path class="cls-1" d="M50.29,510.74l72.67-.12c-.41-6.46-.62-12.94-.63-19.44-.07-42.4,8.18-83.58,24.51-122.39,15.77-37.46,38.36-71.1,67.16-99.99,28.8-28.89,62.36-51.61,99.77-67.5,38.75-16.47,79.9-24.86,122.31-24.93,42.4-.07,83.58,8.18,122.39,24.51,37.46,15.77,71.1,38.37,99.99,67.16,28.89,28.8,51.6,62.36,67.5,99.77,16.47,38.75,24.86,79.9,24.93,122.3.01,6.5-.18,12.98-.56,19.44l72.66-.12.32,186.47-772.69,1.31-.32-186.47Z"/>
    <g>
      <path class="cls-4" d="M320.42,642.31l-215.46.36-.13-77.58,82.72-.14c-6.97-23.41-10.73-48.2-10.78-73.86-.24-143.5,115.89-260.03,259.4-260.28,143.5-.24,260.03,115.9,260.28,259.4.04,25.67-3.65,50.47-10.54,73.9l82.71-.14.13,77.58-215.45.36c26.07-20.14,46.78-46.87,59.66-77.69,9.49-22.74,14.74-47.71,14.69-73.91-.18-105.51-85.86-190.9-191.36-190.72-105.52.18-190.9,85.86-190.72,191.36.04,26.2,5.36,51.15,14.94,73.86,12.97,30.77,33.78,57.43,59.91,77.48Z"/>
      <path class="cls-3" d="M768.75,641.55l-215.45.36c26.07-20.14,46.78-46.87,59.66-77.69,9.49-22.74,14.74-47.71,14.69-73.91-.18-105.51-85.86-190.9-191.36-190.72-105.52.18-190.9,85.86-190.72,191.36.04,26.2,5.36,51.15,14.94,73.86,12.97,30.77,33.78,57.43,59.91,77.48l-215.46.36-.13-77.58,82.72-.14c-6.97-23.41-10.73-48.2-10.78-73.86-.24-143.5,115.89-260.03,259.4-260.28,143.5-.24,260.03,115.9,260.28,259.4.04,25.67-3.65,50.47-10.54,73.9l82.71-.14.13,77.58Z"/>
    </g>
    <rect class="cls-2" width="873.58" height="873.58"/>
  </g>
</svg>