<?xml version="1.0" encoding="UTF-8"?>
<svg id="Layer_2" data-name="Layer 2" xmlns="http://www.w3.org/2000/svg" viewBox="0 0 1463.1491 1463.1491">
  <defs>
    <style>
      .cls-1 {
        stroke-linecap: round;
        stroke-linejoin: round;
        stroke-width: 9px;
      }

      .cls-1, .cls-2, .cls-3 {
        fill: none;
      }

      .cls-1, .cls-3 {
        stroke: #d0d2d3;
      }

      .cls-3 {
        stroke-miterlimit: 10;
        stroke-width: 40px;
      }
    </style>
  </defs>
  <path class="cls-1" d="M199.133,834.3492l99.8174-.169c-.5594-8.8731-.8467-17.7786-.8618-26.7031-.0986-58.2463,11.2305-114.8096,33.6713-168.1192,21.6592-51.4533,52.698-97.6675,92.254-137.3584,39.5561-39.6909,85.6649-70.888,137.0452-92.7226,53.234-22.6232,109.7613-34.1438,168.0102-34.2424,58.2463-.0986,114.8103,11.2312,168.1206,33.6733,51.4526,21.6612,97.6668,52.7006,137.3577,92.2573,39.6909,39.5567,70.8866,85.6655,92.7219,137.0452,22.6225,53.2333,34.1438,109.7586,34.2424,168.0049.0151,8.9245-.2427,17.8309-.7708,26.7058l99.8041-.169.4337,256.1442-1061.4123,1.7971-.4337-256.1442Z"/>
  <path class="cls-3" d="M1186.0606,1014.0386l-295.9571.5011c35.8091-27.6631,64.2604-64.383,81.9468-106.714,13.0413-31.2414,20.2441-65.5323,20.1832-101.5241-.2454-144.9328-117.9379-262.2274-262.8706-261.982-144.9463.2454-262.2274,117.9379-261.982,262.8706.0609,35.9918,7.3663,70.2582,20.5269,101.4552,17.816,42.2709,46.405,78.8943,82.294,106.436l-295.9707.5011-.1804-106.575,113.632-.1924c-9.5725-32.1549-14.7427-66.2073-14.8024-101.4649-.3337-197.1189,159.1902-357.1975,356.3227-357.5313,197.1189-.3337,357.1976,159.2038,357.5313,356.3227.0597,35.2576-5.0088,69.3273-14.4724,101.5144l113.6184-.1924.1804,106.575Z"/>
  <rect class="cls-2" x="130.056" y="132.7637" width="1200" height="1200"/>
</svg>